<?xml version="1.0" encoding="utf-8"?>
<!-- Generator: Adobe Illustrator 22.0.0, SVG Export Plug-In . SVG Version: 6.00 Build 0)  -->
<svg version="1.1" id="lich" xmlns="http://www.w3.org/2000/svg" xmlns:xlink="http://www.w3.org/1999/xlink" x="0px" y="0px"
	 viewBox="0 0 19.7 21" enable-background="new 0 0 19.7 21" xml:space="preserve">
<path id="Path_202" fill="none" d="M1,19c0,0.5,0.4,1,1,1h15.8c0.5,0,1-0.4,1-1V5H1V19z M10.6,10.4c0.3-0.6,0.7-1.1,1.2-1.5
	c0.5-0.3,1.1-0.5,1.7-0.5c1.2-0.1,2.2,0.6,2.6,1.7l-1.5,0.7c-0.1-0.3-0.3-0.5-0.5-0.7c-0.1,0-0.4-0.1-0.7-0.1
	c-0.4,0-0.8,0.2-1.1,0.6c-0.3,0.5-0.5,1.1-0.5,1.6c0.2-0.2,0.5-0.4,0.8-0.6c0.3-0.1,0.6-0.2,1-0.2s0.8,0.1,1.2,0.3s0.7,0.5,0.9,0.8
	c0.2,0.4,0.4,0.9,0.3,1.3c0,0.5-0.1,1-0.4,1.4c-0.2,0.4-0.6,0.8-1,1c-0.5,0.3-1,0.4-1.5,0.4c-0.9,0-1.7-0.3-2.3-1
	c-0.6-0.9-0.9-1.9-0.8-3C10.1,12,10.2,11.2,10.6,10.4L10.6,10.4z M6.5,8.6h1v6.5h1.7v1.4H3.9v-1.4h1.8v-4.2l-1.2,0.9l-0.8-1.2
	L6.5,8.6z"/>
<path id="Path_203" fill="none" d="M13.2,15.2c0.3,0,0.6-0.1,0.8-0.3s0.3-0.5,0.3-0.8s-0.1-0.6-0.3-0.8c-0.5-0.4-1.2-0.4-1.7,0
	c-0.2,0.2-0.3,0.5-0.3,0.8s0.1,0.6,0.3,0.8C12.6,15.2,12.9,15.3,13.2,15.2z"/>
<path id="Path_204" fill="#0849B1" d="M17.8,0H2C0.9,0,0,0.9,0,2v17c0,1.1,0.9,2,2,2h15.8c1.1,0,2-0.9,2-2V2C19.7,0.9,18.9,0,17.8,0
	z M18.7,19c0,0.5-0.4,1-1,1H2c-0.5,0-1-0.4-1-1V5h17.7V19z M18.7,3.9H1V2c0-0.5,0.4-1,1-1h15.8c0.5,0,1,0.4,1,1L18.7,3.9z"/>
<path id="Path_205" fill="#0849B1" d="M5.7,10.9v4.2H3.9v1.4h5.2v-1.4H7.5V8.6h-1l-2.8,1.9l0.8,1.2L5.7,10.9z"/>
<path id="Path_206" fill="#0849B1" d="M13.2,16.7c0.5,0,1.1-0.1,1.5-0.4c0.4-0.2,0.8-0.6,1-1s0.4-0.9,0.4-1.4S16,13,15.8,12.6
	c-0.2-0.4-0.5-0.6-0.9-0.8s-0.8-0.3-1.2-0.3c-0.3,0-0.7,0.1-1,0.2c-0.3,0.1-0.6,0.3-0.8,0.6c0-0.6,0.1-1.2,0.5-1.6
	c0.2-0.4,0.7-0.6,1.1-0.6c0.3,0,0.5,0.1,0.7,0.2c0.2,0.2,0.4,0.4,0.5,0.7l1.5-0.7c-0.4-1.1-1.4-1.8-2.6-1.7c-0.6,0-1.2,0.2-1.7,0.5
	c-0.5,0.4-1,0.9-1.2,1.5c-0.3,0.7-0.5,1.5-0.5,2.3c-0.1,1.1,0.2,2.1,0.8,3C11.5,16.4,12.3,16.7,13.2,16.7z M12.4,13.3
	c0.5-0.4,1.2-0.5,1.7,0c0.2,0.2,0.3,0.5,0.3,0.8s-0.1,0.6-0.3,0.8s-0.5,0.4-0.8,0.3c-0.3,0-0.6-0.1-0.8-0.3s-0.4-0.5-0.3-0.8
	C12,13.8,12.2,13.5,12.4,13.3z"/>
</svg>
