<?xml version="1.0" encoding="utf-8"?>
<!-- Generator: Adobe Illustrator 22.0.0, SVG Export Plug-In . SVG Version: 6.00 Build 0)  -->
<svg version="1.1" id="lich-on-board" xmlns="http://www.w3.org/2000/svg" xmlns:xlink="http://www.w3.org/1999/xlink" x="0px"
	 y="0px" viewBox="0 0 18.8 20" enable-background="new 0 0 18.8 20" xml:space="preserve">
<path id="Path_212" fill="#0849B1" d="M12.6,14.5c0.3,0,0.6-0.1,0.8-0.3s0.3-0.5,0.3-0.8s-0.1-0.6-0.3-0.8s-0.5-0.3-0.8-0.3
	s-0.6,0.1-0.8,0.3s-0.3,0.5-0.3,0.8s0.1,0.6,0.3,0.8C12,14.5,12.3,14.6,12.6,14.5z"/>
<path id="Path_213" fill="#0849B1" d="M16.9,0h-15C0.8,0,0,0.8,0,1.9v16.3c0,1,0.8,1.9,1.9,1.9H17c1,0,1.9-0.8,1.9-1.9V1.9
	C18.8,0.8,18,0,16.9,0z M8.7,15.8h-5v-1.4h1.7v-4l-1.2,0.8L3.4,10l2.7-1.9h1v6.2h1.6V15.8z M12,11.2c0.3-0.2,0.7-0.2,1-0.2
	c0.4,0,0.8,0.1,1.2,0.3s0.7,0.4,0.9,0.8c0.2,0.4,0.3,0.8,0.3,1.3s-0.1,0.9-0.3,1.3c-0.2,0.4-0.6,0.7-1,0.9s-0.9,0.4-1.5,0.3
	c-0.8,0-1.6-0.3-2.2-0.9c-0.6-0.8-0.9-1.8-0.8-2.8c0-0.8,0.1-1.5,0.4-2.2c0.3-0.6,0.7-1,1.2-1.4c0.5-0.3,1.1-0.5,1.6-0.5
	C14,8,15,8.7,15.3,9.8l-1.4,0.7c-0.1-0.2-0.2-0.5-0.4-0.6S13,9.7,12.8,9.7c-0.4,0-0.8,0.2-1,0.5c-0.3,0.5-0.5,1-0.4,1.6
	C11.5,11.5,11.8,11.3,12,11.2L12,11.2z M17.8,4.8H1V1.9C1,1.4,1.4,1,1.9,1l0,0H17c0.5,0,0.9,0.4,0.9,0.9l0,0v2.9H17.8z"/>
</svg>
