<?xml version="1.0" encoding="utf-8"?>
<!-- Generator: Adobe Illustrator 22.0.0, SVG Export Plug-In . SVG Version: 6.00 Build 0)  -->
<svg version="1.1" id="so-thanh-vien" xmlns="http://www.w3.org/2000/svg" xmlns:xlink="http://www.w3.org/1999/xlink" x="0px"
	 y="0px" viewBox="0 0 23.7 16" enable-background="new 0 0 23.7 16" xml:space="preserve">
<path id="Path_222" fill="#707070" d="M20,11.3h-2.6c-0.7-0.6-1.7-1-2.7-1H8.9c-1,0-1.9,0.3-2.7,1H3.7C1.6,11.3,0,13,0,15.1
	C0,15.6,0.4,16,0.9,16h22c0.5,0,0.9-0.4,0.9-0.9C23.7,13.1,22.1,11.4,20,11.3z M22.9,15.3h-4c0-0.1,0-0.2,0-0.2v-0.4
	c0-0.9-0.3-1.8-0.9-2.6h2c1.7,0,3,1.4,3,3.1C23,15.2,23,15.3,22.9,15.3L22.9,15.3L22.9,15.3z M11.5,15.3H5.7c-0.1,0-0.2-0.1-0.2-0.2
	v-0.4c0-1,0.4-1.9,1.1-2.6c0.6-0.6,1.5-1,2.4-1h5.8c0.9,0,1.8,0.3,2.4,1c0.7,0.7,1.1,1.6,1.1,2.6v0.4c0,0.1-0.1,0.2-0.2,0.2H11.5
	L11.5,15.3z M0.7,15.1c0-1.7,1.3-3.1,3-3.1h1.9c-0.6,0.7-0.9,1.6-0.9,2.6V15c0,0.1,0,0.2,0,0.2L0.7,15.1C0.8,15.3,0.7,15.2,0.7,15.1
	L0.7,15.1z"/>
<path id="Path_223" fill="#707070" d="M5.8,11.2c1.4,0,2.7-0.8,3.2-2.1c0.7,0.6,1.6,0.9,2.5,0.9h0.7c0.9,0,1.8-0.3,2.5-0.9
	c0.6,1.3,1.8,2.1,3.2,2.1c2,0,3.6-1.7,3.6-3.7V6.8c0-2-1.6-3.6-3.6-3.7c-0.6,0-1.2,0.2-1.7,0.5c-0.2-2-1.9-3.5-4-3.6h-0.7
	c-2,0-3.7,1.5-4,3.6C7,3.3,6.4,3.1,5.8,3.1c-2,0-3.6,1.7-3.6,3.7v0.7C2.2,9.5,3.8,11.1,5.8,11.2z M2.9,6.8c0-1.6,1.3-2.9,2.9-3
	C6.4,3.8,7,4,7.5,4.4v1.4c0,1,0.4,2,1,2.7c-0.4,1.2-1.5,2-2.7,2c-1.6,0-2.9-1.3-2.9-3V6.8z M8.2,4.1L8.2,4.1c0-1.9,1.5-3.4,3.3-3.4
	h0.7c1.8,0,3.3,1.5,3.3,3.3c0,0,0,0,0,0.1v1.7c0,1-0.4,1.9-1.1,2.5c-0.6,0.6-1.4,0.9-2.2,0.9h-0.7c-0.8,0-1.6-0.3-2.2-0.9
	C9.2,8.2,9.1,8.1,9,8C8.5,7.4,8.2,6.6,8.2,5.8V4.1L8.2,4.1z M17.9,3.8c1.6,0,2.9,1.3,2.9,3v0.7c0,1.6-1.3,2.9-2.9,3
	c-1.2,0-2.3-0.8-2.7-1.9c0.7-0.8,1-1.7,1-2.7V4.4C16.7,4,17.3,3.8,17.9,3.8L17.9,3.8z"/>
</svg>
