<?xml version="1.0" encoding="utf-8"?>
<!-- Generator: Adobe Illustrator 22.0.0, SVG Export Plug-In . SVG Version: 6.00 Build 0)  -->
<svg version="1.1" id="tai-khoan-trang" xmlns="http://www.w3.org/2000/svg" xmlns:xlink="http://www.w3.org/1999/xlink" x="0px"
	 y="0px" viewBox="0 0 70 70" enable-background="new 0 0 70 70" xml:space="preserve">
<path id="Path_224" fill="#FFFFFF" d="M35,0C15.7,0,0,15.7,0,35s15.7,35,35,35s35-15.7,35-35l0,0C70,15.7,54.3,0,35,0z M21.5,32.1
	c0-7.5,6.1-13.5,13.5-13.5l0,0c7.5,0,13.5,6.1,13.5,13.5v3.1c0,7.5-6.1,13.5-13.5,13.5l0,0c-7.5,0-13.5-6.1-13.5-13.5V32.1z
	 M14.6,61.2c2.7-4.8,7.9-7.8,13.4-7.8h14c5.6,0,10.7,3,13.4,7.8C43.4,70.6,26.6,70.6,14.6,61.2z"/>
</svg>
