<?xml version="1.0" encoding="utf-8"?>
<!-- Generator: Adobe Illustrator 22.0.0, SVG Export Plug-In . SVG Version: 6.00 Build 0)  -->
<svg version="1.1" id="thong-bao-on-board" xmlns="http://www.w3.org/2000/svg" xmlns:xlink="http://www.w3.org/1999/xlink" x="0px"
	 y="0px" viewBox="0 0 22 20" enable-background="new 0 0 22 20" xml:space="preserve">
<path id="Path_32" fill="#0849B1" d="M22,15.8c-0.1-0.6-0.7-1.1-1.3-1.1h-0.9c-1.1,0-2-0.9-2-2V6.9c0-3.8-3.1-6.9-6.9-6.9
	C7,0,4,3.1,4,6.9v5.8c0,1.1-0.9,2-2,2H1.3c-0.7,0-1.3,0.5-1.3,1.2c0,0.4,0.1,0.7,0.4,1c0.2,0.3,0.6,0.4,0.9,0.4h3.1l3.9,0.4
	C8.4,19,9.5,20,10.8,20s2.4-1,2.5-2.3l3.9-0.4h3.5c0.4,0,0.7-0.2,1-0.5C21.9,16.6,22,16.2,22,15.8z"/>
</svg>
