<?xml version="1.0" encoding="utf-8"?>
<!-- Generator: Adobe Illustrator 22.0.0, SVG Export Plug-In . SVG Version: 6.00 Build 0)  -->
<svg version="1.1" id="Layer_1" xmlns="http://www.w3.org/2000/svg" xmlns:xlink="http://www.w3.org/1999/xlink" x="0px" y="0px"
	 viewBox="0 0 18.6 21" enable-background="new 0 0 18.6 21" xml:space="preserve">
<g id="thong-tin-tai-khoan" transform="translate(0.5 0.5)">
	<path id="Rectangle_179" fill="none" stroke="#0849B1" stroke-miterlimit="10" d="M8.8,0L8.8,0c2.9,0,5.3,2.4,5.3,5.3v1.2
		c0,2.9-2.4,5.3-5.3,5.3l0,0c-2.9,0-5.3-2.4-5.3-5.3V5.3C3.5,2.4,5.9,0,8.8,0z"/>
	<path id="Rectangle_180" fill="none" stroke="#0849B1" stroke-miterlimit="10" d="M17.6,19.2L17.6,19.2c0,0.5-0.4,0.8-0.8,0.8l0,0
		h-16C0.4,20,0,19.6,0,19.2l0,0c0-3,2.5-5.5,5.5-5.5h6.6C15.2,13.7,17.6,16.1,17.6,19.2z"/>
</g>
</svg>
