<?xml version="1.0" encoding="utf-8"?>
<!-- Generator: Adobe Illustrator 22.0.0, SVG Export Plug-In . SVG Version: 6.00 Build 0)  -->
<svg version="1.1" id="thu-hang" xmlns="http://www.w3.org/2000/svg" xmlns:xlink="http://www.w3.org/1999/xlink" x="0px" y="0px"
	 viewBox="0 0 21.3 20.4" enable-background="new 0 0 21.3 20.4" xml:space="preserve">
<path id="Path_70" fill="#FFFFFF" d="M21.3,7.7c-0.1-0.2-0.2-0.3-0.4-0.3h-7.4l-2.3-7.1C11,0.1,10.8,0,10.6,0
	c-0.2,0-0.4,0.1-0.4,0.3L7.9,7.4H0.5C0.3,7.4,0.1,7.6,0,7.7C0,7.9,0,8.1,0.2,8.3l6,4.4l-2.3,7.1c-0.1,0.2,0,0.4,0.2,0.5
	c0.2,0.1,0.4,0.1,0.5,0l6-4.4l6,4.4c0.1,0.1,0.2,0.1,0.3,0.1c0.1,0,0.2,0,0.3-0.1c0.2-0.1,0.2-0.3,0.2-0.5l-2.3-7.1l6-4.4
	C21.3,8.1,21.3,7.9,21.3,7.7z M7.2,12.6c0.1-0.2,0-0.4-0.2-0.5L1.9,8.3h6.4c0.2,0,0.4-0.1,0.4-0.3l2-6.1l2,6.1
	c0.1,0.2,0.2,0.3,0.4,0.3h6.4l-5.2,3.8c-0.2,0.1-0.2,0.3-0.2,0.5l2,6.1L10.9,15c-0.2-0.1-0.4-0.1-0.5,0l-5.2,3.8L7.2,12.6z"/>
</svg>
