<?xml version="1.0" encoding="utf-8"?>
<!-- Generator: Adobe Illustrator 22.0.0, SVG Export Plug-In . SVG Version: 6.00 Build 0)  -->
<svg version="1.1" id="tin-nhan" xmlns="http://www.w3.org/2000/svg" xmlns:xlink="http://www.w3.org/1999/xlink" x="0px" y="0px"
	 viewBox="0 0 21.5 20" enable-background="new 0 0 21.5 20" xml:space="preserve">
<path id="Path_201" fill="#0849B1" d="M19.6,0H5.9C4.9,0,4,0.9,4,1.9v2.3H1.8C0.8,4.2,0,5,0,6v13.4c0,0.3,0.2,0.5,0.4,0.6
	c0.2,0.1,0.5,0,0.7-0.2l2.6-2.9H15c1,0,1.8-0.8,1.8-1.8v-1.8h0.9l2.7,3.1l0,0c0.1,0.1,0.3,0.2,0.5,0.2c0.1,0,0.2,0,0.2,0
	c0.2-0.1,0.4-0.3,0.4-0.6V1.9C21.5,0.8,20.7,0,19.6,0z M15.9,15c0,0.5-0.4,0.9-0.9,0.9H3.3l-2.4,2.7V6c0-0.5,0.4-0.9,0.9-0.9H4v6.2
	c0,1,0.9,1.9,1.9,1.9h10L15.9,15z M20.6,15.1l-2.5-2.8H5.9c-0.6,0-1-0.4-1-1V1.9c0-0.6,0.4-1,1-1h13.7c0.6,0,1,0.4,1,1L20.6,15.1z"
	/>
</svg>
