<?xml version="1.0" encoding="utf-8"?>
<!-- Generator: Adobe Illustrator 22.0.0, SVG Export Plug-In . SVG Version: 6.00 Build 0)  -->
<svg version="1.1" id="hui-cua-toi" xmlns="http://www.w3.org/2000/svg" xmlns:xlink="http://www.w3.org/1999/xlink" x="0px"
	 y="0px" viewBox="0 0 18.1 20" enable-background="new 0 0 18.1 20" xml:space="preserve">
<g id="Group_395" transform="translate(-274.157 -189.826)">
	<path id="Path_198" fill="#0849B1" d="M288.6,209.8h-10.7c-2,0-3.7-1.6-3.7-3.7v-12.7c0-2,1.6-3.7,3.7-3.7h10.7
		c2,0,3.7,1.6,3.7,3.7v12.7C292.3,208.2,290.6,209.8,288.6,209.8z M277.8,190.8c-1.5,0-2.7,1.2-2.7,2.7v12.7c0,1.5,1.2,2.7,2.7,2.7
		h10.7c1.5,0,2.7-1.2,2.7-2.7v-12.7c0-1.5-1.2-2.7-2.7-2.7H277.8z"/>
</g>
<g id="Group_399" transform="translate(-274.157 -189.826)">
	<g id="Group_396">
		<rect id="Rectangle_181" x="277.8" y="195.8" fill="#0849B1" width="10.8" height="1"/>
	</g>
	<g id="Group_397">
		<rect id="Rectangle_182" x="277.8" y="199.3" fill="#0849B1" width="10.8" height="1"/>
	</g>
	<g id="Group_398">
		<rect id="Rectangle_183" x="277.8" y="202.9" fill="#0849B1" width="10.8" height="1"/>
	</g>
</g>
</svg>
