<?xml version="1.0" encoding="utf-8"?>
<!-- Generator: Adobe Illustrator 22.0.0, SVG Export Plug-In . SVG Version: 6.00 Build 0)  -->
<svg version="1.1" id="trang-chu" xmlns="http://www.w3.org/2000/svg" xmlns:xlink="http://www.w3.org/1999/xlink" x="0px" y="0px"
	 viewBox="0 0 20.7 20" enable-background="new 0 0 20.7 20" xml:space="preserve">
<path id="Path_210" fill="#0849B1" d="M16.9,20h-4.4v-6.4l-4.3,0l0,6.4H3.8c-0.5,0-1-0.4-1-1V9.8H1c-0.5,0-1-0.4-1-1
	c0-0.3,0.1-0.6,0.3-0.7l9.4-7.9c0.4-0.3,0.9-0.3,1.3,0l9.4,7.9c0.4,0.3,0.5,1,0.1,1.4c-0.2,0.2-0.5,0.3-0.7,0.3h-1.9V19
	C17.9,19.6,17.4,20,16.9,20z M13.4,19h3.4l0-10.2l2.8,0L10.4,1L1,8.8l2.8,0V19l3.5,0v-5.4c0-0.5,0.4-0.9,0.9-0.9h4.3
	c0.5,0,0.9,0.4,0.9,0.9V19z"/>
</svg>
