<?xml version="1.0" encoding="utf-8"?>
<!-- Generator: Adobe Illustrator 22.0.0, SVG Export Plug-In . SVG Version: 6.00 Build 0)  -->
<svg version="1.1" id="trang-chu-on-board" xmlns="http://www.w3.org/2000/svg" xmlns:xlink="http://www.w3.org/1999/xlink" x="0px"
	 y="0px" viewBox="0 0 20.8 20" enable-background="new 0 0 20.8 20" xml:space="preserve">
<path id="Path_191" fill="#0849B1" d="M20.6,8.4l-9.9-8.3C10.5,0,10.2,0,10,0.1L0.2,8.4C0,8.6-0.1,8.9,0.1,9.1
	c0.1,0.1,0.2,0.2,0.4,0.2H3v10.2C3,19.8,3.2,20,3.5,20l0,0h4.1v-6.2c0-0.3,0.2-0.5,0.5-0.5h0h4.5c0.3,0,0.5,0.2,0.5,0.5v0V20h4.1
	c0.3,0,0.5-0.2,0.5-0.5c0,0,0,0,0,0V9.3h2.5c0.3,0,0.5-0.2,0.5-0.5C20.7,8.6,20.7,8.5,20.6,8.4z"/>
</svg>
